<svg width="318" height="53" viewBox="0 0 318 53" fill="none" xmlns="http://www.w3.org/2000/svg">
<g clip-path="url(#clip0_91_401)">
<path d="M140.163 46.4265H15.1673C12.4173 46.4265 10.1674 44.1765 10.1674 41.4266V11.4272C10.1674 8.67718 12.4173 6.42725 15.1673 6.42725H140.163C142.913 6.42725 145.163 8.67718 145.163 11.4272V41.4266C145.163 44.1765 142.913 46.4265 140.163 46.4265Z" fill="#100F0D"/>
<path d="M140.163 6.42725H15.1673C12.4173 6.42725 10.1674 8.67718 10.1674 11.4272V41.4266C10.1674 44.1765 12.4173 46.4265 15.1673 46.4265H140.163C142.913 46.4265 145.163 44.1765 145.163 41.4266V11.4272C145.163 8.67718 142.913 6.42725 140.163 6.42725ZM140.163 7.22683C142.479 7.22683 144.363 9.11121 144.363 11.4272V41.4266C144.363 43.7425 142.479 45.6269 140.163 45.6269H15.1673C12.8513 45.6269 10.9678 43.7425 10.9678 41.4266V11.4272C10.9678 9.11121 12.8513 7.22683 15.1673 7.22683H140.163Z" fill="#A2A2A1"/>
<path d="M117.101 36.4274H118.966V23.9256H117.101V36.4274ZM133.907 28.4294L131.768 33.8492H131.704L129.485 28.4294H127.475L130.805 36.0044L128.906 40.2183H130.852L135.982 28.4297L133.907 28.4294ZM123.325 35.0074C122.715 35.0074 121.862 34.7015 121.862 33.9456C121.862 32.9808 122.924 32.6109 123.84 32.6109C124.66 32.6109 125.047 32.7875 125.545 33.0289C125.4 34.187 124.403 35.0074 123.325 35.0074ZM123.551 28.1559C122.2 28.1559 120.801 28.7512 120.222 30.07L121.878 30.7614C122.232 30.07 122.891 29.845 123.583 29.845C124.548 29.845 125.529 30.4235 125.545 31.4532V31.5817C125.207 31.3887 124.483 31.0993 123.599 31.0993C121.813 31.0993 119.996 32.0801 119.996 33.9136C119.996 35.5863 121.46 36.664 123.1 36.664C124.354 36.664 125.047 36.101 125.48 35.4414H125.545V36.4069H127.347V31.6137C127.347 29.3942 125.689 28.1559 123.551 28.1559ZM112.019 29.9512H109.365V25.6662H112.019C113.414 25.6662 114.206 26.8209 114.206 27.8087C114.206 28.7774 113.414 29.9512 112.019 29.9512ZM111.971 23.9259H107.5V36.4277H109.365V31.6915H111.971C114.039 31.6915 116.072 30.1947 116.072 27.8091C116.072 25.424 114.039 23.9259 111.971 23.9259ZM87.5903 35.0095C86.3012 35.0095 85.2224 33.9297 85.2224 32.4482C85.2224 30.9494 86.3012 29.8544 87.5903 29.8544C88.863 29.8544 89.8618 30.9495 89.8618 32.4482C89.8618 33.9297 88.863 35.0095 87.5903 35.0095ZM89.7329 29.1292H89.6684C89.2497 28.6299 88.4438 28.1788 87.4294 28.1788C85.3025 28.1788 83.3533 30.0479 83.3533 32.4482C83.3533 34.8322 85.3025 36.6848 87.4294 36.6848C88.4438 36.6848 89.2496 36.2336 89.6684 35.7184H89.7329V36.3301C89.7329 37.9579 88.863 38.8273 87.4614 38.8273C86.318 38.8273 85.6091 38.0059 85.3189 37.3132L83.692 37.9898C84.1588 39.117 85.399 40.503 87.4615 40.503C89.6529 40.503 91.5055 39.2139 91.5055 36.0722V28.4364H89.733L89.7329 29.1292ZM92.7945 36.427H94.6625V23.9252H92.7945V36.427ZM97.4176 32.3029C97.3695 30.6596 98.6909 29.822 99.641 29.822C100.382 29.822 101.01 30.1927 101.22 30.724L97.4176 32.3029ZM103.217 30.885C102.863 29.935 101.784 28.1788 99.5765 28.1788C97.3851 28.1788 95.5648 29.9025 95.5648 32.4318C95.5648 34.8162 97.3695 36.6849 99.7855 36.6849C101.735 36.6849 102.863 35.4931 103.33 34.8001L101.88 33.8334C101.397 34.5424 100.737 35.0095 99.7855 35.0095C98.8355 35.0095 98.1586 34.5744 97.7243 33.7206L103.41 31.3686L103.217 30.885ZM57.91 29.4838V31.2881H62.2274C62.0985 32.303 61.7602 33.0439 61.2446 33.5595C60.6161 34.1876 59.6334 34.8806 57.91 34.8806C55.2517 34.8806 53.1737 32.7381 53.1737 30.0799C53.1737 27.4217 55.2517 25.2789 57.91 25.2789C59.3438 25.2789 60.3908 25.8429 61.1641 26.5679L62.4371 25.2949C61.3574 24.264 59.9239 23.4746 57.91 23.4746C54.2685 23.4746 51.2077 26.4389 51.2077 30.0799C51.2077 33.7205 54.2685 36.6849 57.91 36.6849C59.8751 36.6849 61.3575 36.0404 62.5172 34.8322C63.7094 33.64 64.0801 31.9647 64.0801 30.6112C64.0801 30.1928 64.0476 29.8061 63.9832 29.4838H57.91ZM68.9891 35.0095C67.7 35.0095 66.5883 33.9462 66.5883 32.4318C66.5883 30.9014 67.7 29.8545 68.9891 29.8545C70.2777 29.8545 71.3893 30.9014 71.3893 32.4318C71.3893 33.9462 70.2777 35.0095 68.9891 35.0095ZM68.9891 28.1788C66.6363 28.1788 64.7196 29.9669 64.7196 32.4318C64.7196 34.8806 66.6363 36.6849 68.9891 36.6849C71.341 36.6849 73.2581 34.8806 73.2581 32.4318C73.2581 29.9669 71.341 28.1788 68.9891 28.1788ZM78.3019 35.0095C77.0137 35.0095 75.9017 33.9462 75.9017 32.4318C75.9017 30.9014 77.0138 29.8545 78.3019 29.8545C79.591 29.8545 80.7023 30.9014 80.7023 32.4318C80.7023 33.9462 79.591 35.0095 78.3019 35.0095ZM78.3019 28.1788C75.95 28.1788 74.0333 29.9669 74.0333 32.4318C74.0333 34.8806 75.95 36.6849 78.3019 36.6849C80.6547 36.6849 82.5715 34.8806 82.5715 32.4318C82.5715 29.9669 80.6547 28.1788 78.3019 28.1788Z" fill="white"/>
<path d="M30.8817 25.851L20.2361 37.1505C20.2365 37.1529 20.2373 37.1548 20.2377 37.1572C20.5642 38.3842 21.6849 39.2877 23.015 39.2877C23.5466 39.2877 24.0458 39.1439 24.4739 38.8916L24.5079 38.8717L36.4915 31.9566L30.8817 25.851Z" fill="#7F7F7F"/>
<path d="M41.6523 23.9277L41.6421 23.9207L36.4685 20.9214L30.6396 26.1082L36.4887 31.9565L41.6351 28.9871C42.5373 28.5 43.1499 27.5488 43.1499 26.4519C43.1499 25.3629 42.5457 24.4164 41.6523 23.9277Z" fill="#C6C6C6"/>
<path d="M20.2345 15.7045C20.1705 15.9405 20.1368 16.1877 20.1368 16.4444V36.4118C20.1368 36.668 20.1701 36.916 20.2349 37.1512L31.2479 26.1404L20.2345 15.7045Z" fill="#878787"/>
<path d="M30.9604 26.4269L36.4709 20.918L24.5008 13.978C24.0658 13.7174 23.5579 13.567 23.0146 13.567C21.6845 13.567 20.5623 14.4721 20.2357 15.7005C20.2353 15.7017 20.2353 15.7025 20.2353 15.7036L30.9604 26.4269Z" fill="#939393"/>
<path d="M57.5598 16.2082H54.6427V16.9301H56.8286C56.7692 17.5192 56.5349 17.9817 56.1396 18.3176C55.7443 18.6536 55.2395 18.8223 54.6427 18.8223C53.988 18.8223 53.4333 18.5942 52.9787 18.1411C52.5333 17.6786 52.3068 17.1067 52.3068 16.4177C52.3068 15.7287 52.5333 15.1568 52.9787 14.6943C53.4333 14.2412 53.988 14.0146 54.6427 14.0146C54.9787 14.0146 55.299 14.0724 55.5927 14.199C55.8864 14.3255 56.1223 14.5021 56.3067 14.7287L56.8614 14.174C56.6098 13.888 56.2911 13.6693 55.8957 13.5099C55.5004 13.3505 55.088 13.274 54.6426 13.274C53.7692 13.274 53.0287 13.5771 52.4239 14.1818C51.8193 14.788 51.5161 15.5349 51.5161 16.4177C51.5161 17.3004 51.8192 18.0489 52.4239 18.6537C53.0286 19.2583 53.7692 19.5615 54.6426 19.5615C55.5598 19.5615 56.291 19.2677 56.8535 18.6708C57.3488 18.174 57.6019 17.5021 57.6019 16.6615C57.6019 16.5193 57.5848 16.3676 57.5598 16.2082ZM58.6899 13.4083V19.427H62.2038V18.6879H59.4633V16.7786H61.9352V16.0567H59.4633V14.1489H62.2038V13.4083L58.6899 13.4083ZM67.1312 14.149V13.4083H62.9953V14.149H64.6766V19.427H65.45V14.149H67.1312ZM70.8756 13.4083H70.1022V19.427H70.8756V13.4083ZM75.9806 14.149V13.4083H71.8448V14.149H73.5259V19.427H74.2993V14.149H75.9806ZM83.7851 14.1912C83.1883 13.5771 82.457 13.274 81.5836 13.274C80.7086 13.274 79.9775 13.5771 79.3805 14.1818C78.7836 14.7787 78.49 15.5271 78.49 16.4176C78.49 17.3082 78.7837 18.0567 79.3805 18.6536C79.9774 19.2582 80.7086 19.5614 81.5836 19.5614C82.4492 19.5614 83.1882 19.2582 83.7851 18.6536C84.382 18.0567 84.6757 17.3083 84.6757 16.4176C84.6757 15.5349 84.382 14.7879 83.7851 14.1912ZM79.9352 14.6943C80.3805 14.2412 80.9274 14.0146 81.5836 14.0146C82.2383 14.0146 82.7852 14.2412 83.2226 14.6943C83.6679 15.1395 83.8866 15.7207 83.8866 16.4176C83.8866 17.1161 83.6679 17.6957 83.2226 18.1411C82.7852 18.5941 82.2383 18.8222 81.5836 18.8222C80.9274 18.8222 80.3805 18.5941 79.9352 18.1411C79.4992 17.6864 79.2805 17.1161 79.2805 16.4176C79.2805 15.7207 79.4992 15.1489 79.9352 14.6943ZM86.5132 15.6786L86.4804 14.5176H86.5132L89.5726 19.4269H90.3803V13.4082H89.6069V16.93L89.6397 18.091H89.6069L86.682 13.4082H85.7398V19.4269H86.5132V15.6786Z" fill="white" stroke="white" stroke-width="0.199996" stroke-miterlimit="10"/>
</g>
<path d="M298.465 6.42689H199.542C199.181 6.42689 198.825 6.42689 198.465 6.42889C198.164 6.43089 197.865 6.4367 197.561 6.44159C196.901 6.44949 196.242 6.50856 195.591 6.6183C194.94 6.73042 194.31 6.9418 193.722 7.24529C193.134 7.55135 192.597 7.94905 192.13 8.42395C191.661 8.89751 191.27 9.44489 190.971 10.045C190.673 10.644 190.465 11.2858 190.357 11.9483C190.247 12.61 190.189 13.2794 190.181 13.9503C190.172 14.2569 190.171 14.5646 190.166 14.8712V37.9853C190.171 38.2958 190.172 38.5966 190.181 38.9072C190.189 39.5782 190.247 40.2475 190.357 40.9091C190.465 41.5721 190.672 42.2143 190.971 42.8134C191.269 43.4116 191.661 43.9568 192.13 44.4277C192.595 44.9047 193.133 45.3027 193.722 45.6064C194.31 45.9107 194.94 46.1234 195.591 46.2372C196.243 46.3461 196.901 46.4052 197.561 46.414C197.865 46.4208 198.164 46.4247 198.465 46.4247C198.825 46.4267 199.181 46.4267 199.542 46.4267H298.465C298.818 46.4267 299.177 46.4267 299.53 46.4247C299.83 46.4247 300.137 46.4208 300.437 46.414C301.096 46.4056 301.753 46.3465 302.404 46.2372C303.056 46.1226 303.689 45.91 304.28 45.6064C304.869 45.3025 305.406 44.9046 305.87 44.4277C306.338 43.9549 306.731 43.4102 307.032 42.8134C307.329 42.2138 307.534 41.5717 307.641 40.9091C307.751 40.2474 307.812 39.5782 307.823 38.9072C307.827 38.5966 307.827 38.2958 307.827 37.9853C307.835 37.622 307.835 37.2607 307.835 36.8916V15.963C307.835 15.5968 307.835 15.2335 307.827 14.8712C307.827 14.5646 307.827 14.2569 307.823 13.9503C307.812 13.2793 307.751 12.6101 307.641 11.9483C307.534 11.2861 307.329 10.6444 307.032 10.045C306.425 8.84207 305.463 7.86291 304.28 7.2452C303.689 6.94245 303.056 6.73113 302.404 6.61821C301.754 6.50799 301.096 6.4489 300.437 6.44145C300.137 6.43657 299.83 6.43071 299.53 6.42876C299.177 6.42676 298.818 6.42676 298.465 6.42676V6.42689Z" fill="#A6A6A6"/>
<path d="M198.47 45.5513C198.17 45.5513 197.878 45.5474 197.581 45.5406C196.965 45.5325 196.35 45.478 195.743 45.3775C195.176 45.2783 194.627 45.0936 194.114 44.8297C193.605 44.5679 193.141 44.2246 192.74 43.8131C192.333 43.4063 191.994 42.9346 191.736 42.4166C191.476 41.8951 191.296 41.3363 191.202 40.7594C191.101 40.1395 191.046 39.5127 191.039 38.8844C191.032 38.6735 191.024 37.9713 191.024 37.9713V14.8708C191.024 14.8708 191.033 14.1794 191.039 13.9763C191.046 13.349 191.101 12.7231 191.201 12.1042C191.295 11.5257 191.476 10.9652 191.736 10.4421C191.992 9.92445 192.329 9.45236 192.734 9.04419C193.138 8.63213 193.604 8.28711 194.113 8.02172C194.625 7.75861 195.173 7.57525 195.739 7.47778C196.349 7.37635 196.965 7.32151 197.583 7.31372L198.47 7.30151H299.526L300.423 7.31421C301.036 7.32161 301.647 7.37596 302.251 7.4768C302.822 7.57549 303.376 7.76013 303.894 8.02465C304.914 8.55949 305.745 9.40567 306.269 10.4446C306.525 10.9641 306.702 11.52 306.795 12.0935C306.897 12.7175 306.954 13.3482 306.966 13.9807C306.969 14.2639 306.969 14.5681 306.969 14.8708C306.977 15.2458 306.977 15.6027 306.977 15.9626V36.8912C306.977 37.2545 306.977 37.609 306.969 37.9664C306.969 38.2916 306.969 38.5895 306.965 38.8961C306.953 39.5172 306.897 40.1367 306.797 40.7496C306.705 41.3306 306.526 41.8939 306.266 42.4196C306.007 42.932 305.67 43.3996 305.267 43.8053C304.865 44.219 304.401 44.5643 303.891 44.8278C303.375 45.0937 302.822 45.2791 302.251 45.3775C301.643 45.4785 301.029 45.533 300.413 45.5406C300.125 45.5474 299.823 45.5513 299.53 45.5513L298.465 45.5533L198.47 45.5513Z" fill="black"/>
<path d="M214.522 26.7232C214.532 25.8885 214.75 25.0701 215.156 24.3442C215.561 23.6182 216.14 23.0083 216.839 22.5711C216.395 21.926 215.809 21.395 215.128 21.0205C214.446 20.6459 213.689 20.4381 212.915 20.4134C211.263 20.2372 209.662 21.4183 208.821 21.4183C207.963 21.4183 206.668 20.4309 205.273 20.4601C204.37 20.4898 203.491 20.7566 202.72 21.2347C201.949 21.7127 201.313 22.3857 200.874 23.188C198.973 26.5364 200.391 31.4574 202.213 34.164C203.124 35.4894 204.189 36.9698 205.583 36.9173C206.947 36.8598 207.457 36.0328 209.103 36.0328C210.734 36.0328 211.212 36.9173 212.634 36.8839C214.098 36.8598 215.02 35.5527 215.899 34.2148C216.554 33.2704 217.058 32.2267 217.392 31.1223C216.542 30.7566 215.817 30.1444 215.306 29.3621C214.796 28.5798 214.523 27.662 214.522 26.7232Z" fill="white"/>
<path d="M211.836 18.6336C212.634 17.6594 213.027 16.4072 212.932 15.143C211.712 15.2732 210.586 15.8658 209.778 16.8026C209.382 17.2603 209.079 17.7927 208.886 18.3695C208.693 18.9462 208.614 19.556 208.653 20.164C209.263 20.1704 209.866 20.036 210.417 19.7709C210.969 19.5058 211.454 19.1169 211.836 18.6336Z" fill="white"/>
<path d="M231.763 33.564H227.108L225.991 36.9204H224.019L228.428 24.5025H230.476L234.885 36.9204H232.88L231.763 33.564ZM227.59 32.0152H231.28L229.461 26.5679H229.41L227.59 32.0152Z" fill="white"/>
<path d="M244.406 32.3947C244.406 35.2081 242.925 37.0157 240.691 37.0157C240.125 37.0458 239.562 36.9132 239.066 36.6331C238.571 36.353 238.163 35.9366 237.89 35.4317H237.847V39.9161H236.02V27.8673H237.789V29.3732H237.822C238.109 28.8707 238.523 28.4565 239.022 28.1747C239.522 27.8928 240.087 27.7539 240.657 27.7726C242.917 27.7726 244.406 29.589 244.406 32.3947ZM242.528 32.3947C242.528 30.5617 241.596 29.3566 240.175 29.3566C238.779 29.3566 237.84 30.5871 237.84 32.3947C237.84 34.2189 238.779 35.4406 240.175 35.4406C241.596 35.4406 242.528 34.2443 242.528 32.3947Z" fill="white"/>
<path d="M254.205 32.3947C254.205 35.2081 252.724 37.0157 250.489 37.0157C249.923 37.0458 249.36 36.9132 248.865 36.6331C248.37 36.353 247.962 35.9366 247.688 35.4317H247.646V39.9161H245.819V27.8673H247.587V29.3732H247.621C247.907 28.8707 248.322 28.4565 248.821 28.1747C249.32 27.8928 249.885 27.7539 250.456 27.7726C252.715 27.7726 254.205 29.589 254.205 32.3947ZM252.326 32.3947C252.326 30.5617 251.395 29.3566 249.974 29.3566C248.577 29.3566 247.638 30.587 247.638 32.3947C247.638 34.2189 248.577 35.4405 249.974 35.4405C251.395 35.4405 252.326 34.2443 252.326 32.3947H252.326Z" fill="white"/>
<path d="M260.681 33.4606C260.816 34.692 261.992 35.5006 263.6 35.5006C265.14 35.5006 266.248 34.692 266.248 33.5816C266.248 32.6178 265.58 32.0406 263.997 31.6451L262.415 31.2574C260.173 30.7066 259.132 29.6402 259.132 27.9098C259.132 25.7672 260.968 24.2955 263.575 24.2955C266.155 24.2955 267.924 25.7672 267.983 27.9098H266.139C266.028 26.6705 265.021 25.9225 263.549 25.9225C262.077 25.9225 261.069 26.6793 261.069 27.7809C261.069 28.6588 261.713 29.1754 263.287 29.5709L264.632 29.9068C267.137 30.5093 268.178 31.5328 268.178 33.3492C268.178 35.6724 266.359 37.1275 263.464 37.1275C260.756 37.1275 258.928 35.7066 258.81 33.4605L260.681 33.4606Z" fill="white"/>
<path d="M272.123 25.7256V27.8682H273.816V29.3398H272.123V34.331C272.123 35.1064 272.462 35.4677 273.206 35.4677C273.407 35.4642 273.607 35.4498 273.807 35.4247V36.8876C273.472 36.9512 273.132 36.98 272.792 36.9736C270.989 36.9736 270.287 36.2851 270.287 34.5292V29.3398H268.992V27.8682H270.286V25.7256H272.123Z" fill="white"/>
<path d="M274.796 32.3952C274.796 29.5466 276.446 27.7566 279.018 27.7566C281.6 27.7566 283.242 29.5466 283.242 32.3952C283.242 35.2517 281.608 37.0339 279.018 37.0339C276.429 37.0339 274.796 35.2517 274.796 32.3952ZM281.38 32.3952C281.38 30.4411 280.499 29.2878 279.018 29.2878C277.538 29.2878 276.658 30.4499 276.658 32.3952C276.658 34.3571 277.538 35.5017 279.018 35.5017C280.499 35.5017 281.38 34.3571 281.38 32.3952H281.38Z" fill="white"/>
<path d="M284.748 27.8672H286.491V29.4082H286.534C286.652 28.927 286.929 28.5016 287.319 28.2037C287.709 27.9059 288.188 27.7536 288.675 27.7725C288.886 27.7718 289.096 27.795 289.301 27.8418V29.5801C289.035 29.4975 288.758 29.4596 288.48 29.4678C288.215 29.4569 287.95 29.5045 287.704 29.6074C287.459 29.7102 287.238 29.866 287.057 30.0639C286.876 30.2618 286.739 30.4971 286.656 30.7538C286.573 31.0105 286.546 31.2823 286.576 31.5508V36.9209H284.748L284.748 27.8672Z" fill="white"/>
<path d="M297.727 34.2624C297.481 35.906 295.907 37.0339 293.893 37.0339C291.303 37.0339 289.696 35.2692 289.696 32.4382C289.696 29.5984 291.312 27.7566 293.816 27.7566C296.279 27.7566 297.828 29.4773 297.828 32.2224V32.8591H291.54V32.9714C291.511 33.3046 291.552 33.6403 291.661 33.9561C291.769 34.2719 291.942 34.5607 292.169 34.8033C292.395 35.0458 292.67 35.2366 292.975 35.3629C293.279 35.4892 293.607 35.5482 293.935 35.5358C294.367 35.577 294.801 35.4753 295.171 35.2458C295.541 35.0164 295.829 34.6715 295.991 34.2624L297.727 34.2624ZM291.549 31.5603H296C296.016 31.2607 295.972 30.9609 295.869 30.6797C295.766 30.3985 295.607 30.1419 295.402 29.9262C295.197 29.7104 294.95 29.5401 294.677 29.4258C294.404 29.3116 294.111 29.256 293.816 29.2624C293.519 29.2606 293.224 29.3188 292.948 29.4335C292.673 29.5483 292.423 29.7173 292.212 29.931C292.001 30.1446 291.834 30.3986 291.72 30.6782C291.606 30.9579 291.548 31.2577 291.549 31.5603V31.5603Z" fill="white"/>
<path d="M227.361 15.1564C227.745 15.1285 228.129 15.1873 228.487 15.3288C228.845 15.4702 229.168 15.6907 229.432 15.9743C229.696 16.2579 229.895 16.5976 230.014 16.9689C230.134 17.3402 230.171 17.7337 230.122 18.1213C230.122 20.0275 229.109 21.1232 227.361 21.1232H225.242V15.1564H227.361ZM226.153 20.2794H227.26C227.533 20.296 227.807 20.2504 228.062 20.1458C228.316 20.0412 228.544 19.8802 228.729 19.6747C228.915 19.4691 229.053 19.2241 229.133 18.9575C229.214 18.6909 229.235 18.4093 229.195 18.1334C229.232 17.8586 229.209 17.5788 229.127 17.3142C229.045 17.0495 228.907 16.8065 228.722 16.6026C228.537 16.3986 228.31 16.2388 228.057 16.1346C227.804 16.0303 227.532 15.9843 227.26 15.9996H226.153V20.2794Z" fill="white"/>
<path d="M231.152 18.8694C231.124 18.5735 231.157 18.2749 231.249 17.9928C231.342 17.7108 231.491 17.4514 231.688 17.2314C231.884 17.0115 232.124 16.8357 232.391 16.7154C232.658 16.5951 232.948 16.533 233.24 16.533C233.532 16.533 233.821 16.5951 234.089 16.7154C234.356 16.8357 234.596 17.0115 234.792 17.2314C234.989 17.4514 235.138 17.7108 235.23 17.9928C235.323 18.2749 235.356 18.5735 235.328 18.8694C235.356 19.1656 235.323 19.4646 235.231 19.7471C235.139 20.0296 234.99 20.2895 234.794 20.5099C234.597 20.7303 234.357 20.9064 234.09 21.0269C233.822 21.1475 233.533 21.2097 233.24 21.2097C232.947 21.2097 232.658 21.1475 232.39 21.0269C232.123 20.9064 231.883 20.7303 231.686 20.5099C231.489 20.2895 231.34 20.0296 231.248 19.7471C231.156 19.4646 231.123 19.1656 231.152 18.8694ZM234.429 18.8694C234.429 17.8933 233.998 17.3225 233.241 17.3225C232.482 17.3225 232.054 17.8933 232.054 18.8694C232.054 19.8533 232.482 20.4197 233.241 20.4197C233.998 20.4197 234.429 19.8494 234.429 18.8694H234.429Z" fill="white"/>
<path d="M240.879 21.1225H239.973L239.058 17.8061H238.989L238.077 21.1225H237.179L235.959 16.6196H236.845L237.638 20.0556H237.704L238.614 16.6196H239.452L240.363 20.0556H240.432L241.221 16.6196H242.095L240.879 21.1225Z" fill="white"/>
<path d="M243.122 16.6211H243.963V17.3364H244.028C244.139 17.0795 244.326 16.8641 244.563 16.7203C244.8 16.5765 245.075 16.5114 245.35 16.5342C245.565 16.5177 245.781 16.5507 245.982 16.6308C246.184 16.7109 246.365 16.836 246.512 16.9969C246.659 17.1577 246.769 17.3502 246.833 17.56C246.897 17.7698 246.914 17.9916 246.882 18.2089V21.1239H246.008V18.4321C246.008 17.7085 245.699 17.3486 245.053 17.3486C244.907 17.3417 244.761 17.367 244.625 17.4228C244.489 17.4787 244.367 17.5637 244.266 17.6721C244.166 17.7805 244.09 17.9096 244.043 18.0508C243.996 18.1919 243.98 18.3416 243.996 18.4897V21.124H243.122L243.122 16.6211Z" fill="white"/>
<path d="M248.274 14.862H249.148V21.1227H248.274V14.862Z" fill="white"/>
<path d="M250.363 18.8695C250.335 18.5735 250.369 18.275 250.461 17.9929C250.553 17.7108 250.702 17.4514 250.899 17.2315C251.096 17.0115 251.335 16.8357 251.603 16.7154C251.87 16.5952 252.159 16.533 252.452 16.533C252.744 16.533 253.033 16.5952 253.3 16.7154C253.568 16.8357 253.807 17.0115 254.004 17.2315C254.201 17.4514 254.35 17.7108 254.442 17.9929C254.534 18.275 254.568 18.5735 254.54 18.8695C254.568 19.1657 254.535 19.4647 254.443 19.7472C254.351 20.0297 254.202 20.2895 254.005 20.51C253.809 20.7304 253.569 20.9065 253.301 21.027C253.034 21.1475 252.744 21.2098 252.452 21.2098C252.159 21.2098 251.869 21.1475 251.602 21.027C251.334 20.9065 251.094 20.7304 250.898 20.51C250.701 20.2895 250.552 20.0297 250.46 19.7472C250.368 19.4647 250.335 19.1657 250.363 18.8695ZM253.641 18.8695C253.641 17.8934 253.209 17.3226 252.453 17.3226C251.693 17.3226 251.266 17.8934 251.266 18.8695C251.266 19.8534 251.693 20.4198 252.453 20.4198C253.209 20.4198 253.641 19.8494 253.641 18.8695H253.641Z" fill="white"/>
<path d="M255.46 19.8494C255.46 19.0389 256.053 18.5716 257.107 18.5052L258.306 18.4349V18.0462C258.306 17.5706 257.997 17.3021 257.4 17.3021C256.912 17.3021 256.574 17.4842 256.477 17.8025H255.631C255.72 17.0291 256.435 16.533 257.44 16.533C258.55 16.533 259.176 17.095 259.176 18.0462V21.1228H258.335V20.49H258.266C258.125 20.717 257.928 20.9021 257.695 21.0263C257.461 21.1505 257.199 21.2094 256.936 21.197C256.75 21.2167 256.562 21.1965 256.384 21.1378C256.207 21.0791 256.043 20.9832 255.904 20.8562C255.765 20.7293 255.653 20.5741 255.577 20.4007C255.5 20.2272 255.461 20.0395 255.46 19.8494ZM258.306 19.4646V19.0882L257.225 19.1585C256.615 19.2 256.338 19.4109 256.338 19.8079C256.338 20.2132 256.684 20.449 257.16 20.449C257.299 20.4633 257.44 20.449 257.573 20.4069C257.707 20.3649 257.831 20.2958 257.938 20.204C258.045 20.1122 258.133 19.9994 258.196 19.8724C258.259 19.7453 258.297 19.6067 258.306 19.4646Z" fill="white"/>
<path d="M260.324 18.8693C260.324 17.4465 261.044 16.5451 262.162 16.5451C262.439 16.5321 262.714 16.5995 262.954 16.7394C263.195 16.8793 263.391 17.0859 263.52 17.3351H263.586V14.862H264.459V21.1227H263.622V20.4113H263.553C263.414 20.6588 263.21 20.8628 262.965 21.0013C262.72 21.1398 262.443 21.2074 262.162 21.1969C261.036 21.197 260.324 20.2956 260.324 18.8693ZM261.227 18.8693C261.227 19.8244 261.67 20.3991 262.41 20.3991C263.147 20.3991 263.602 19.8161 263.602 18.8732C263.602 17.9348 263.142 17.3434 262.41 17.3434C261.675 17.3434 261.227 17.9221 261.227 18.8693H261.227Z" fill="white"/>
<path d="M268.075 18.8694C268.047 18.5735 268.081 18.2749 268.173 17.9928C268.265 17.7108 268.414 17.4514 268.611 17.2314C268.808 17.0115 269.047 16.8357 269.315 16.7154C269.582 16.5951 269.871 16.533 270.163 16.533C270.456 16.533 270.745 16.5951 271.012 16.7154C271.279 16.8357 271.519 17.0115 271.716 17.2314C271.912 17.4514 272.061 17.7108 272.154 17.9928C272.246 18.2749 272.279 18.5735 272.251 18.8694C272.28 19.1656 272.247 19.4646 272.155 19.7471C272.063 20.0296 271.914 20.2895 271.717 20.5099C271.52 20.7303 271.281 20.9064 271.013 21.0269C270.745 21.1475 270.456 21.2097 270.163 21.2097C269.871 21.2097 269.581 21.1475 269.314 21.0269C269.046 20.9064 268.806 20.7303 268.61 20.5099C268.413 20.2895 268.264 20.0296 268.172 19.7471C268.08 19.4646 268.047 19.1656 268.075 18.8694ZM271.353 18.8694C271.353 17.8933 270.921 17.3225 270.165 17.3225C269.405 17.3225 268.978 17.8933 268.978 18.8694C268.978 19.8533 269.405 20.4197 270.165 20.4197C270.921 20.4197 271.353 19.8494 271.353 18.8694Z" fill="white"/>
<path d="M273.424 16.6211H274.265V17.3364H274.33C274.441 17.0795 274.628 16.8641 274.865 16.7203C275.102 16.5765 275.377 16.5114 275.652 16.5342C275.867 16.5177 276.083 16.5507 276.285 16.6308C276.486 16.7109 276.667 16.836 276.814 16.9969C276.961 17.1577 277.071 17.3502 277.135 17.56C277.199 17.7698 277.216 17.9916 277.184 18.2089V21.1239H276.31V18.4321C276.31 17.7085 276.001 17.3486 275.355 17.3486C275.209 17.3417 275.063 17.367 274.927 17.4228C274.791 17.4787 274.669 17.5637 274.568 17.6721C274.468 17.7805 274.392 17.9096 274.345 18.0508C274.298 18.1919 274.282 18.3416 274.298 18.4897V21.124H273.424V16.6211Z" fill="white"/>
<path d="M282.122 15.4988V16.6404H283.082V17.3889H282.122V19.7043C282.122 20.176 282.313 20.3825 282.748 20.3825C282.86 20.3822 282.971 20.3753 283.082 20.362V21.1023C282.925 21.1308 282.766 21.146 282.606 21.1477C281.634 21.1477 281.247 20.8 281.247 19.9319V17.3889H280.544V16.6403H281.247V15.4988H282.122Z" fill="white"/>
<path d="M284.275 14.862H285.141V17.3434H285.21C285.327 17.0841 285.519 16.8675 285.76 16.7232C286.002 16.5788 286.281 16.5138 286.561 16.5368C286.775 16.5249 286.989 16.5613 287.188 16.6434C287.387 16.7254 287.566 16.8511 287.711 17.0114C287.857 17.1718 287.966 17.3628 288.031 17.5709C288.095 17.7791 288.114 17.9992 288.085 18.2155V21.1227H287.211V18.4347C287.211 17.7155 286.881 17.3512 286.264 17.3512C286.114 17.3387 285.963 17.3597 285.821 17.4128C285.68 17.4658 285.552 17.5496 285.445 17.6584C285.339 17.7671 285.258 17.8981 285.207 18.0423C285.155 18.1864 285.136 18.3402 285.149 18.4928V21.1227H284.275L284.275 14.862Z" fill="white"/>
<path d="M293.181 19.9071C293.062 20.3186 292.805 20.6746 292.454 20.9128C292.103 21.1509 291.681 21.2561 291.262 21.2098C290.97 21.2177 290.68 21.1608 290.412 21.0433C290.145 20.9258 289.905 20.7504 289.71 20.5292C289.516 20.3081 289.371 20.0465 289.285 19.7627C289.2 19.4789 289.177 19.1796 289.217 18.8856C289.178 18.5907 289.202 18.2908 289.287 18.0061C289.372 17.7215 289.516 17.4587 289.71 17.2356C289.903 17.0126 290.142 16.8344 290.409 16.7132C290.676 16.592 290.966 16.5306 291.258 16.5331C292.49 16.5331 293.233 17.3891 293.233 18.8031V19.1132H290.107V19.163C290.093 19.3282 290.114 19.4945 290.167 19.6513C290.22 19.808 290.305 19.9518 290.416 20.0732C290.527 20.1947 290.662 20.2912 290.812 20.3566C290.961 20.422 291.123 20.4548 291.286 20.453C291.495 20.4785 291.707 20.4402 291.894 20.343C292.082 20.2458 292.237 20.0941 292.339 19.9071L293.181 19.9071ZM290.107 18.4559H292.343C292.354 18.3048 292.334 18.153 292.284 18.0103C292.234 17.8676 292.155 17.7371 292.052 17.6272C291.95 17.5174 291.826 17.4306 291.688 17.3724C291.55 17.3142 291.402 17.286 291.253 17.2894C291.102 17.2875 290.952 17.3164 290.812 17.3743C290.672 17.4323 290.545 17.5181 290.438 17.6268C290.331 17.7355 290.247 17.8649 290.19 18.0073C290.133 18.1497 290.105 18.3022 290.107 18.4559H290.107Z" fill="white"/>
<defs>
<clipPath id="clip0_91_401">
<rect width="135.001" height="40" fill="white" transform="translate(10.165 6.42676)"/>
</clipPath>
</defs>
</svg>
