<svg width="23" height="23" viewBox="0 0 23 23" fill="none" xmlns="http://www.w3.org/2000/svg">
<path d="M12.7149 8.48347L20.7663 10.2141C21.486 10.3689 22 11.0051 22 11.7412V19.938C22 20.8007 21.3007 21.5 20.438 21.5H12.7149M12.7149 8.48347V3.51146C12.7149 2.82705 12.2161 2.24473 11.5399 2.13953L2.80207 0.780322C1.85509 0.633014 1 1.36537 1 2.32374V19.938C1 20.8007 1.69932 21.5 2.56198 21.5H4.29752M12.7149 8.48347V21.5M12.7149 21.5H8.89669M4.29752 21.5V17.0744C4.29752 16.4034 4.84144 15.8595 5.5124 15.8595H7.68182C8.35277 15.8595 8.89669 16.4034 8.89669 17.0744V21.5M4.29752 21.5H8.89669M8.02893 4.83884H10.1983M3.34298 4.83884H5.5124M8.02893 9H10.1983M3.34298 9H5.5124M8.02893 13.0826H10.1983M3.34298 13.0826H5.5124M16.3595 14H18.5289M16.3595 18H18.5289" stroke="#171717" stroke-width="1.3" stroke-linecap="round"/>
</svg>
